<svg id="Layer_1" data-name="Layer 1" xmlns="http://www.w3.org/2000/svg" viewBox="0 0 607.42 149.76"><defs><style>.cls-1{fill:#fff;fill-rule:evenodd;}.cls-2{fill:none;stroke:#fff;stroke-miterlimit:10;stroke-width:6px;}</style></defs><title>WhiteTransparentArtboard 1</title><path class="cls-1" d="M163.63,141.42c-.42-.38-.64-.55-.83-.74q-6-6-12-12.07a2.18,2.18,0,0,1-.69-1.69q0-25.2,0-50.39a33.27,33.27,0,0,1,24.62-31.76c11-2.92,21-.51,29.8,6.62a33,33,0,0,1,5.27,45.95,33.7,33.7,0,0,1-33.7,12.32c-.77-.16-1-.43-.75-1.2q1.49-5.79,2.88-11.61c.18-.77.47-.87,1.24-.68,10.78,2.66,22.09-5.66,23.31-16.77a19.62,19.62,0,0,0-38.89-5.18,26.49,26.49,0,0,0-.25,4.06q0,30.72,0,61.43Z"/><path class="cls-1" d="M332.32,12.67v1.48q0,22.68,0,45.35c0,1.17.29,1.49,1.45,1.44,2.95-.1,5.89.07,8.81-.7a19.36,19.36,0,0,0,14.27-16.31c.3-2.47.3-2.47,2.83-2.47,3.32,0,6.64.06,10,0,1.17,0,1.39.39,1.33,1.43a32.94,32.94,0,0,1-9.79,22c-1.62,1.63-1.61,1.61.2,3.07a33.23,33.23,0,0,1,12.39,20.31,24.78,24.78,0,0,1,.36,4.65c0,5.44,0,10.88,0,16.32,0,.89-.22,1.16-1.13,1.15-3.76-.05-7.52-.06-11.28,0-1,0-1.36-.21-1.35-1.3.07-4.76,0-9.52,0-14.28a19.6,19.6,0,0,0-16.19-19.63c-3.71-.7-7.5-.23-11.25-.33-.48,0-.63.24-.61.67s0,.64,0,1c0,10.84,0,21.68,0,32.51,0,1.08-.25,1.42-1.38,1.4-3.72-.07-7.44-.05-11.16,0-.86,0-1.17-.18-1.17-1.12q0-41,0-81.94a1.81,1.81,0,0,1,.48-1.41q6.36-6.44,12.7-12.91A4.09,4.09,0,0,1,332.32,12.67Z"/><path class="cls-1" d="M475.75,110.12a33.25,33.25,0,1,1,.23-66.5,33.25,33.25,0,1,1-.23,66.5Zm0-52.56A19.32,19.32,0,1,0,495.25,77,19.51,19.51,0,0,0,475.73,57.57Z"/><path class="cls-1" d="M310.25,91.62c0,5.84,0,11.68,0,17.52,0,1-.3,1.26-1.28,1.25q-5.7-.08-11.4,0c-1,0-1.28-.26-1.27-1.26,0-10.6-.07-21.2,0-31.8a19.57,19.57,0,0,0-14.07-19c-10.48-3.19-21.93,3.57-24.38,14.47a21.38,21.38,0,0,0-.49,4.75c0,10.48,0,21,0,31.44,0,1.08-.25,1.42-1.37,1.4-3.8-.07-7.6-.05-11.4,0-.84,0-1.18-.14-1.18-1.1,0-11.36-.28-22.73.12-34.08.42-11.81,6.25-20.75,16.3-26.89a32.09,32.09,0,0,1,18.91-4.64,32.75,32.75,0,0,1,19.68,7.86A32.39,32.39,0,0,1,309.84,71a27.93,27.93,0,0,1,.41,5.13C310.24,81.3,310.24,86.46,310.25,91.62Z"/><path class="cls-1" d="M604.48,91.58c0,5.88,0,11.76,0,17.64,0,.87-.2,1.18-1.12,1.17q-5.82-.08-11.64,0c-1,0-1.19-.32-1.19-1.23,0-10.8,0-21.6,0-32.39a19.3,19.3,0,0,0-14.8-18.63A19.5,19.5,0,0,0,552,73.66a21.73,21.73,0,0,0-.31,3.93c0,10.44,0,20.87,0,31.31,0,1.27-.37,1.51-1.54,1.49-3.76-.07-7.52-.06-11.28,0-.9,0-1.15-.25-1.14-1.14,0-11.32-.08-22.64.06-34a30.54,30.54,0,0,1,6.94-18.77,33.54,33.54,0,0,1,59.42,14.81,25.83,25.83,0,0,1,.34,4.77C604.46,81.26,604.48,86.42,604.48,91.58Z"/><path class="cls-1" d="M412.54,110.41c-12.79-.49-22.54-6.13-29.08-17.22a31.23,31.23,0,0,1-4.31-16.36A33.48,33.48,0,0,1,406.26,44c10.84-2.07,20.57.73,28.92,8.06.69.6.75,1,0,1.64-2.86,2.68-5.66,5.41-8.46,8.16-.55.54-.89.54-1.49,0a19.08,19.08,0,0,0-12-4.57,19.51,19.51,0,0,0-19.84,15.75c-2.37,10.74,5.6,21.86,16.5,23.16a19.76,19.76,0,0,0,15.31-4.39c.6-.48.94-.5,1.49,0q4.23,4.16,8.54,8.25c.63.59.59.91,0,1.48a33.1,33.1,0,0,1-16.87,8.26A30.07,30.07,0,0,1,412.54,110.41Z"/><path class="cls-1" d="M234.88,77.12c0,10.64,0,21.28,0,31.92,0,1-.2,1.37-1.3,1.35-3.76-.07-7.52,0-11.28,0-.85,0-1.17-.16-1.17-1.11q0-32.28,0-64.55c0-1,.33-1.11,1.18-1.1,3.8,0,7.6.05,11.4,0,1,0,1.18.33,1.17,1.23Q234.86,61,234.88,77.12Z"/><path class="cls-1" d="M515.65,76.88c0-10.6,0-21.19,0-31.79,0-1.12.21-1.51,1.42-1.48,3.72.08,7.44.05,11.16,0,.85,0,1.18.17,1.17,1.11q0,32.27,0,64.53c0,.94-.32,1.12-1.18,1.11-3.8,0-7.6-.05-11.39,0-1,0-1.17-.35-1.17-1.24Q515.67,93,515.65,76.88Z"/><path class="cls-1" d="M234.88,13.24c0,5.3,0,10.49,0,15.67,0,.64-.24.82-.84.82q-6.05,0-12.1,0c-.55,0-.75-.17-.79-.75a4.08,4.08,0,0,1,1.31-3.6c3.86-3.71,7.58-7.56,11.36-11.35A2.16,2.16,0,0,1,234.88,13.24Z"/><path class="cls-1" d="M529.35,13c0,5.5,0,10.69,0,15.89,0,.66-.29.8-.87.8q-6,0-12,0c-.59,0-.84-.16-.87-.81a4.1,4.1,0,0,1,1.27-3.5c3.87-3.7,7.59-7.56,11.38-11.35C528.55,13.79,528.84,13.53,529.35,13Z"/><circle class="cls-2" cx="69.65" cy="76.87" r="59.85"/><path class="cls-1" d="M72.92,23.94l1.84.16A50.5,50.5,0,0,1,87.5,27a55.85,55.85,0,0,1,14.83,8.2c1.47,1.13,2.91,2.3,4.27,3.57.38.35.44.56,0,1q-4.39,4.41-8.74,8.87c-.39.4-.62.46-1.09,0a41.66,41.66,0,0,0-9.27-6.38,38.34,38.34,0,0,0-13-3.94A40.58,40.58,0,0,0,54.67,40.8,38.23,38.23,0,0,0,34.28,60.33a34.62,34.62,0,0,0-3.55,16.76c.65,10.58.13,21.18.25,31.76,0,1.28-.05,2.58-.14,3.94a1.6,1.6,0,0,1-.88-.72A58,58,0,0,1,18.81,92.52a47.63,47.63,0,0,1-2.16-10.81,54.56,54.56,0,0,1,2.46-21,52.13,52.13,0,0,1,8-15.68,50.17,50.17,0,0,1,9.17-9.33,60.28,60.28,0,0,1,17.1-9.26,42,42,0,0,1,11.14-2.34c.66,0,1.31-.14,2-.13a3.72,3.72,0,0,0,.47,0h6Z"/><path class="cls-1" d="M44.21,102.88c0-6.49-.06-13,0-19.48,0-3,0-6,.14-9A24.14,24.14,0,0,1,49.5,60.51,25.27,25.27,0,0,1,66,50.5a26,26,0,0,1,20.48,4.9,25,25,0,0,1,8.68,12.26A27.59,27.59,0,0,1,96.6,77.93,25.57,25.57,0,0,1,82.88,99.5a29.8,29.8,0,0,1-10.16,3.07,22.55,22.55,0,0,1-10.4-1.36c-1.42-.49-2.83-1-4.23-1.53-.86-.34-.89-.3-.9.61,0,6.5,0,13-.08,19.48,0,2.67-.07,5.34-.07,8,0,.45-.06.62-.6.5a48.17,48.17,0,0,1-10.56-3.9,2.77,2.77,0,0,1-1.76-3c.1-6.16,0-12.33,0-18.49ZM57.47,76.27a12,12,0,0,0,.32,3.1,11.82,11.82,0,0,0,4.41,7.52,13,13,0,0,0,6.72,2.43,12.83,12.83,0,0,0,10.91-3.57A12.38,12.38,0,0,0,83.6,74.92a13,13,0,0,0-2.19-6c-3.17-4.48-7.57-6.22-12.93-5.54A12.7,12.7,0,0,0,57.47,76.27Z"/><path class="cls-1" d="M70.63,122.79c0-2.06,0-4.12,0-6.19,0-.54.11-.73.7-.76A38.27,38.27,0,0,0,88.69,111,42,42,0,0,0,97,104.86c.86-.81.86-.81,1.68,0,2.8,2.85,5.59,5.71,8.41,8.54.41.41.39.65,0,1a51.11,51.11,0,0,1-26.33,14.32,52.58,52.58,0,0,1-9.22,1c-.72,0-1-.14-1-.9.05-2,0-4.07,0-6.11Z"/></svg>